<svg width="80" height="80" viewBox="0 0 80 80" fill="none" xmlns="http://www.w3.org/2000/svg">
<path fill-rule="evenodd" clip-rule="evenodd" d="M45.2471 2.175C42.3472 -0.725 37.6475 -0.725 34.7477 2.175L2.17975 34.75C-0.720072 37.65 -0.720072 42.345 2.17975 45.24L34.7577 77.82C37.6575 80.72 42.3522 80.72 45.2471 77.82L77.825 45.24C80.7248 42.34 80.7248 37.645 77.825 34.75L45.2471 2.175ZM39.9974 20C39.3655 20.0004 38.7406 20.1331 38.1631 20.3896C37.5856 20.6462 37.0682 21.0209 36.6443 21.4896C36.2204 21.9582 35.8994 22.5105 35.7019 23.1108C35.5044 23.7111 35.4348 24.3462 35.4977 24.975L37.2476 42.51C37.3064 43.1989 37.6215 43.8406 38.1307 44.3082C38.6399 44.7758 39.3061 45.0353 39.9974 45.0353C40.6887 45.0353 41.3548 44.7758 41.864 44.3082C42.3732 43.8406 42.6884 43.1989 42.7472 42.51L44.4971 24.975C44.5599 24.3462 44.4904 23.7111 44.2929 23.1108C44.0954 22.5105 43.7744 21.9582 43.3505 21.4896C42.9265 21.0209 42.4092 20.6462 41.8317 20.3896C41.2542 20.1331 40.6293 20.0004 39.9974 20ZM40.0074 50C38.6814 50 37.4097 50.5268 36.4721 51.4645C35.5344 52.4021 35.0077 53.6739 35.0077 55C35.0077 56.3261 35.5344 57.5979 36.4721 58.5355C37.4097 59.4732 38.6814 60 40.0074 60C41.3334 60 42.6051 59.4732 43.5427 58.5355C44.4803 57.5979 45.0071 56.3261 45.0071 55C45.0071 53.6739 44.4803 52.4021 43.5427 51.4645C42.6051 50.5268 41.3334 50 40.0074 50Z" fill="#F7B046"/>
</svg>
