<?xml version="1.0" encoding="utf-8"?>
<!-- Generator: Adobe Illustrator 24.1.1, SVG Export Plug-In . SVG Version: 6.00 Build 0)  -->
<svg version="1.1" id="레이어_1" xmlns="http://www.w3.org/2000/svg" xmlns:xlink="http://www.w3.org/1999/xlink" x="0px"
	 y="0px" viewBox="0 0 90 25.9" style="enable-background:new 0 0 90 25.9;" xml:space="preserve">
<style type="text/css">
	.st0{fill:#FFFFFF;}
</style>
<g>
	<g>
		<g>
			<path class="st0" d="M34.72,9.73v5.6c0,0.19-0.04,0.3-0.11,0.35c-0.07,0.05-0.2,0.07-0.37,0.07h-2.31
				c-0.16,0-0.28-0.02-0.36-0.07c-0.08-0.05-0.12-0.16-0.12-0.35V0.7c0-0.16,0.04-0.27,0.13-0.32c0.09-0.05,0.2-0.08,0.32-0.08h4.81
				c0.88,0,1.69,0.09,2.42,0.28c0.73,0.19,1.35,0.47,1.86,0.86c0.51,0.39,0.91,0.87,1.19,1.45c0.28,0.58,0.42,1.27,0.42,2.08
				c0,0.78-0.16,1.46-0.47,2.05c-0.31,0.59-0.74,1.08-1.27,1.48c-0.54,0.4-1.18,0.71-1.92,0.91c-0.75,0.21-1.55,0.31-2.42,0.31
				H34.72z M34.72,2.79v4.45h1.59c0.96,0,1.7-0.18,2.21-0.54c0.51-0.36,0.77-0.94,0.77-1.74c0-0.71-0.2-1.25-0.61-1.61
				c-0.41-0.37-0.95-0.55-1.62-0.55H34.72z"/>
			<path class="st0" d="M53.69,15.73c-0.19,0-0.32-0.02-0.37-0.05c-0.06-0.03-0.12-0.12-0.2-0.27L49.7,9.69h-2.21v5.62
				c0,0.19-0.03,0.3-0.1,0.35c-0.06,0.05-0.18,0.07-0.36,0.07H44.7c-0.16,0-0.28-0.02-0.36-0.07c-0.08-0.05-0.12-0.16-0.12-0.35
				V0.68c0-0.16,0.04-0.27,0.13-0.32c0.09-0.05,0.2-0.08,0.32-0.08h4.83c0.9,0,1.71,0.09,2.44,0.28c0.73,0.19,1.35,0.47,1.86,0.86
				C54.32,1.81,54.72,2.3,55,2.88c0.28,0.58,0.42,1.27,0.42,2.08c0,0.96-0.25,1.78-0.75,2.46c-0.5,0.68-1.15,1.21-1.97,1.59
				l3.89,6.2c0.13,0.2,0.18,0.34,0.14,0.41c-0.03,0.07-0.17,0.11-0.41,0.11H53.69z M47.49,2.75v4.49h1.61
				c0.96,0,1.71-0.18,2.24-0.55c0.53-0.37,0.79-0.95,0.79-1.76c0-0.72-0.21-1.27-0.64-1.63c-0.42-0.37-0.97-0.55-1.65-0.55H47.49z"
				/>
			<path class="st0" d="M70.17,13.76c-0.68,0.79-1.49,1.37-2.43,1.75c-0.93,0.37-1.99,0.56-3.17,0.56c-1.31,0-2.44-0.22-3.38-0.65
				c-0.94-0.43-1.71-1.02-2.32-1.77c-0.6-0.74-1.05-1.6-1.33-2.57c-0.28-0.97-0.43-1.99-0.43-3.06c0-1.04,0.15-2.05,0.44-3.02
				c0.29-0.97,0.74-1.83,1.35-2.57c0.61-0.74,1.38-1.33,2.32-1.78C62.17,0.22,63.28,0,64.58,0c1.28,0,2.39,0.22,3.32,0.67
				c0.93,0.45,1.7,1.04,2.32,1.79c0.61,0.74,1.07,1.59,1.37,2.56c0.3,0.96,0.44,1.97,0.43,3.01c-0.01,1.18-0.17,2.24-0.46,3.2
				C71.25,12.18,70.79,13.03,70.17,13.76z M64.58,2.49c-0.76,0-1.41,0.16-1.96,0.47c-0.55,0.31-1,0.73-1.35,1.25
				c-0.36,0.52-0.62,1.11-0.79,1.78c-0.17,0.66-0.25,1.34-0.25,2.04c0,0.7,0.08,1.37,0.25,2.04c0.17,0.66,0.43,1.25,0.79,1.78
				c0.36,0.52,0.81,0.94,1.35,1.26c0.55,0.32,1.2,0.48,1.96,0.48c0.74,0,1.39-0.16,1.93-0.48c0.55-0.32,0.99-0.74,1.34-1.26
				c0.35-0.52,0.61-1.12,0.78-1.79c0.17-0.67,0.25-1.34,0.25-2.03c0-0.67-0.08-1.33-0.25-2c-0.17-0.66-0.43-1.25-0.78-1.78
				c-0.35-0.52-0.79-0.95-1.33-1.27C65.98,2.65,65.33,2.49,64.58,2.49z"/>
			<path class="st0" d="M87.41,15.73c-0.17,0-0.28-0.02-0.32-0.07c-0.04-0.05-0.06-0.15-0.06-0.31V5.28l-3.89,10.01
				c-0.07,0.15-0.13,0.24-0.18,0.28c-0.05,0.04-0.15,0.06-0.3,0.06h-1.73c-0.15,0-0.25-0.02-0.31-0.06
				c-0.06-0.04-0.12-0.13-0.17-0.28L76.56,5.28v10.07c0,0.16-0.02,0.26-0.06,0.31c-0.04,0.05-0.15,0.07-0.32,0.07h-1.95
				c-0.17,0-0.28-0.02-0.32-0.07c-0.04-0.05-0.06-0.15-0.06-0.31V0.88c0-0.28,0.03-0.45,0.09-0.51c0.06-0.06,0.22-0.09,0.49-0.09
				h2.23c0.12,0,0.21,0.02,0.28,0.06c0.07,0.04,0.13,0.13,0.18,0.26l4.67,11.65L86.47,0.6c0.08-0.21,0.25-0.32,0.5-0.32h2.17
				c0.28,0,0.45,0.03,0.51,0.09c0.06,0.06,0.09,0.23,0.09,0.51v14.46c0,0.16-0.02,0.26-0.07,0.31c-0.05,0.05-0.15,0.07-0.31,0.07
				H87.41z"/>
		</g>
		<g>
			<path class="st0" d="M37.64,25.15c-0.21,0.06-0.47,0.12-0.76,0.17c-0.29,0.05-0.63,0.07-1.03,0.07c-0.63,0-1.21-0.09-1.74-0.28
				c-0.53-0.19-0.98-0.45-1.35-0.79c-0.38-0.34-0.67-0.75-0.88-1.23c-0.21-0.48-0.31-1.01-0.31-1.6c0-0.57,0.11-1.1,0.31-1.58
				c0.21-0.48,0.5-0.89,0.88-1.23c0.38-0.34,0.83-0.61,1.35-0.8c0.53-0.19,1.11-0.28,1.74-0.28c0.33,0,0.65,0.02,0.96,0.05
				c0.31,0.04,0.6,0.09,0.86,0.16c0.1,0.03,0.16,0.07,0.16,0.12c0,0.05,0.01,0.1,0.01,0.17l-0.02,0.84c0,0.11-0.03,0.17-0.09,0.19
				c-0.06,0.01-0.15,0-0.29-0.03c-0.33-0.08-0.63-0.14-0.89-0.17c-0.26-0.03-0.53-0.04-0.81-0.04c-0.41,0-0.78,0.06-1.11,0.19
				c-0.33,0.13-0.61,0.31-0.83,0.54c-0.23,0.23-0.4,0.51-0.52,0.82c-0.12,0.32-0.18,0.67-0.18,1.05c0,0.38,0.07,0.72,0.2,1.04
				c0.13,0.32,0.32,0.59,0.55,0.82c0.24,0.23,0.51,0.42,0.83,0.56c0.32,0.14,0.67,0.23,1.05,0.26c0.35,0.03,0.69,0.02,1.02-0.03
				c0.32-0.06,0.59-0.12,0.79-0.18c0.1-0.03,0.16-0.04,0.19-0.02c0.03,0.02,0.05,0.06,0.06,0.12l0.06,0.88
				c0.01,0.07,0,0.12-0.03,0.15C37.78,25.1,37.73,25.12,37.64,25.15z"/>
			<path class="st0" d="M38.75,25.24c-0.07,0-0.11-0.01-0.14-0.04c-0.03-0.03-0.04-0.08-0.04-0.16v-7.62c0-0.08,0.01-0.13,0.03-0.16
				c0.02-0.03,0.07-0.04,0.14-0.04h1.09c0.07,0,0.12,0.01,0.15,0.04c0.03,0.03,0.04,0.08,0.04,0.16v7.62c0,0.08-0.01,0.13-0.04,0.16
				c-0.03,0.03-0.08,0.04-0.15,0.04H38.75z"/>
			<path class="st0" d="M45.58,24.48c-0.27,0.31-0.6,0.53-0.98,0.69c-0.38,0.15-0.8,0.23-1.26,0.23c-0.49,0-0.91-0.08-1.27-0.23
				c-0.36-0.16-0.67-0.37-0.92-0.63c-0.25-0.26-0.43-0.57-0.56-0.92c-0.13-0.35-0.19-0.72-0.19-1.11c0-0.39,0.06-0.76,0.18-1.11
				c0.12-0.35,0.31-0.66,0.55-0.92c0.25-0.26,0.55-0.47,0.92-0.62c0.37-0.15,0.79-0.23,1.28-0.23c0.49,0,0.91,0.08,1.28,0.23
				c0.37,0.16,0.67,0.37,0.92,0.63c0.25,0.26,0.43,0.57,0.56,0.92s0.19,0.72,0.19,1.11c0,0.38-0.06,0.75-0.18,1.09
				C45.98,23.93,45.81,24.23,45.58,24.48z M43.34,20.76c-0.24,0-0.46,0.05-0.64,0.15c-0.18,0.1-0.34,0.23-0.46,0.4
				c-0.12,0.16-0.21,0.35-0.28,0.56c-0.06,0.21-0.09,0.42-0.09,0.64c0,0.22,0.03,0.44,0.09,0.64c0.06,0.21,0.15,0.4,0.28,0.56
				c0.12,0.17,0.27,0.3,0.46,0.4c0.18,0.1,0.4,0.15,0.64,0.15c0.25,0,0.47-0.05,0.65-0.15c0.18-0.1,0.34-0.23,0.46-0.4
				c0.12-0.17,0.21-0.35,0.27-0.56c0.06-0.21,0.09-0.42,0.09-0.64c0-0.21-0.03-0.43-0.09-0.63c-0.06-0.21-0.15-0.4-0.27-0.56
				c-0.12-0.17-0.27-0.3-0.46-0.4C43.81,20.81,43.59,20.76,43.34,20.76z"/>
			<path class="st0" d="M50.79,25.26c-0.08,0-0.13-0.01-0.16-0.03c-0.03-0.02-0.04-0.06-0.04-0.11v-0.37
				c-0.07,0.09-0.15,0.17-0.26,0.25c-0.11,0.07-0.22,0.14-0.35,0.19c-0.13,0.05-0.25,0.09-0.39,0.13s-0.26,0.05-0.38,0.05
				c-0.72,0-1.26-0.19-1.62-0.57c-0.36-0.38-0.54-0.91-0.54-1.61v-3.24c0-0.07,0.01-0.12,0.04-0.16c0.03-0.03,0.08-0.05,0.17-0.05
				h1.02c0.09,0,0.15,0.02,0.18,0.06c0.03,0.04,0.04,0.09,0.04,0.15v3.06c0,0.23,0.02,0.41,0.06,0.56c0.04,0.15,0.1,0.26,0.17,0.35
				c0.07,0.09,0.16,0.15,0.27,0.19c0.11,0.04,0.23,0.05,0.36,0.05c0.32,0,0.6-0.11,0.82-0.34c0.22-0.22,0.34-0.57,0.34-1.05v-2.84
				c0-0.07,0.01-0.12,0.04-0.16c0.03-0.03,0.08-0.05,0.17-0.05h1.03c0.09,0,0.15,0.02,0.17,0.07c0.03,0.05,0.04,0.1,0.04,0.16v3.91
				c0,0.2,0,0.4,0.01,0.61c0.01,0.21,0.01,0.4,0.01,0.56c0,0.08-0.01,0.14-0.03,0.17c-0.02,0.03-0.08,0.04-0.18,0.04H50.79z"/>
			<path class="st0" d="M56.85,24.76c-0.06,0.07-0.14,0.14-0.24,0.21c-0.1,0.07-0.22,0.13-0.34,0.19c-0.12,0.05-0.25,0.09-0.38,0.13
				c-0.13,0.03-0.26,0.05-0.4,0.05c-0.81,0-1.43-0.26-1.87-0.78c-0.44-0.52-0.66-1.23-0.66-2.13c0-0.44,0.06-0.84,0.18-1.2
				c0.12-0.35,0.29-0.66,0.5-0.9c0.22-0.25,0.48-0.44,0.79-0.57c0.31-0.13,0.67-0.2,1.07-0.2c0.24,0,0.48,0.05,0.73,0.16
				c0.25,0.1,0.45,0.23,0.61,0.38v-2.72c0-0.09,0.01-0.15,0.03-0.17c0.02-0.02,0.08-0.03,0.17-0.03h1.05c0.08,0,0.14,0.01,0.17,0.03
				c0.03,0.02,0.04,0.08,0.04,0.17v7.68c0,0.09-0.02,0.15-0.05,0.17c-0.03,0.02-0.09,0.03-0.18,0.03h-1.03
				c-0.07,0-0.12-0.01-0.15-0.03c-0.03-0.02-0.04-0.07-0.04-0.14V24.76z M55.66,20.73c-0.37,0-0.66,0.14-0.88,0.41
				c-0.22,0.27-0.33,0.7-0.33,1.29c0,0.62,0.11,1.06,0.34,1.33c0.23,0.27,0.52,0.4,0.87,0.4c0.15,0,0.3-0.03,0.45-0.1
				c0.14-0.07,0.27-0.17,0.38-0.31c0.11-0.14,0.2-0.32,0.27-0.54c0.07-0.22,0.1-0.48,0.1-0.78c0-0.31-0.03-0.58-0.09-0.79
				c-0.06-0.21-0.15-0.39-0.26-0.52c-0.11-0.13-0.24-0.23-0.39-0.29C55.98,20.76,55.82,20.73,55.66,20.73z"/>
			<path class="st0" d="M64.12,22.33v2.72c0,0.09-0.02,0.15-0.05,0.17c-0.03,0.02-0.09,0.03-0.17,0.03h-1.06
				c-0.07,0-0.13-0.01-0.17-0.03s-0.06-0.08-0.06-0.17v-7.11c0-0.08,0.02-0.13,0.06-0.16c0.04-0.03,0.09-0.04,0.15-0.04h2.21
				c0.4,0,0.77,0.05,1.11,0.14c0.33,0.09,0.62,0.23,0.86,0.42c0.24,0.19,0.42,0.42,0.55,0.71c0.13,0.28,0.19,0.62,0.19,1.01
				c0,0.38-0.07,0.71-0.22,1c-0.14,0.29-0.34,0.53-0.59,0.72c-0.25,0.2-0.54,0.34-0.88,0.44c-0.34,0.1-0.71,0.15-1.11,0.15H64.12z
				 M64.12,18.95v2.17h0.73c0.44,0,0.78-0.09,1.02-0.26c0.24-0.18,0.35-0.46,0.35-0.85c0-0.34-0.09-0.61-0.28-0.79
				c-0.19-0.18-0.44-0.27-0.75-0.27H64.12z"/>
			<path class="st0" d="M73.14,24.48c-0.27,0.31-0.6,0.53-0.98,0.69c-0.38,0.15-0.8,0.23-1.26,0.23c-0.49,0-0.91-0.08-1.27-0.23
				c-0.36-0.16-0.67-0.37-0.92-0.63c-0.25-0.26-0.43-0.57-0.56-0.92c-0.13-0.35-0.19-0.72-0.19-1.11c0-0.39,0.06-0.76,0.18-1.11
				c0.12-0.35,0.31-0.66,0.55-0.92c0.25-0.26,0.55-0.47,0.92-0.62c0.37-0.15,0.79-0.23,1.28-0.23c0.49,0,0.91,0.08,1.28,0.23
				c0.37,0.16,0.67,0.37,0.92,0.63c0.25,0.26,0.43,0.57,0.56,0.92s0.19,0.72,0.19,1.11c0,0.38-0.06,0.75-0.18,1.09
				C73.55,23.93,73.37,24.23,73.14,24.48z M70.9,20.76c-0.24,0-0.46,0.05-0.64,0.15c-0.18,0.1-0.34,0.23-0.46,0.4
				c-0.12,0.16-0.21,0.35-0.28,0.56c-0.06,0.21-0.09,0.42-0.09,0.64c0,0.22,0.03,0.44,0.09,0.64c0.06,0.21,0.15,0.4,0.28,0.56
				c0.12,0.17,0.27,0.3,0.46,0.4c0.18,0.1,0.4,0.15,0.64,0.15c0.25,0,0.47-0.05,0.65-0.15c0.18-0.1,0.34-0.23,0.46-0.4
				c0.12-0.17,0.21-0.35,0.27-0.56c0.06-0.21,0.09-0.42,0.09-0.64c0-0.21-0.03-0.43-0.09-0.63c-0.06-0.21-0.15-0.4-0.27-0.56
				c-0.12-0.17-0.27-0.3-0.46-0.4C71.37,20.81,71.15,20.76,70.9,20.76z"/>
			<path class="st0" d="M77.46,20.95c-0.14-0.05-0.27-0.08-0.39-0.09c-0.12-0.01-0.22,0-0.31,0.02c-0.18,0.05-0.32,0.14-0.42,0.25
				c-0.11,0.12-0.19,0.25-0.24,0.41c-0.06,0.16-0.09,0.32-0.11,0.49s-0.02,0.33-0.02,0.49v2.52c0,0.08-0.01,0.13-0.04,0.16
				c-0.03,0.03-0.08,0.04-0.16,0.04h-1.06c-0.08,0-0.13-0.01-0.15-0.04c-0.02-0.03-0.03-0.08-0.03-0.18v-3.86
				c0-0.21,0-0.43-0.01-0.65c-0.01-0.23-0.01-0.42-0.01-0.57c0-0.08,0.01-0.14,0.04-0.17c0.03-0.03,0.08-0.04,0.17-0.04h1.06
				c0.11,0,0.17,0.05,0.17,0.16v0.37c0.1-0.12,0.22-0.24,0.36-0.36c0.15-0.12,0.3-0.19,0.46-0.22c0.15-0.03,0.31-0.03,0.46-0.02
				c0.15,0.01,0.27,0.04,0.35,0.09c0.04,0.03,0.06,0.05,0.07,0.07c0.01,0.02,0.02,0.06,0.02,0.11v0.85c0,0.07-0.01,0.12-0.04,0.16
				S77.53,20.98,77.46,20.95z"/>
			<path class="st0" d="M81.66,25.18c-0.15,0.06-0.32,0.11-0.53,0.15c-0.21,0.04-0.44,0.06-0.71,0.05
				c-0.27-0.01-0.52-0.07-0.74-0.18c-0.22-0.11-0.38-0.25-0.49-0.41c-0.1-0.19-0.17-0.4-0.19-0.64c-0.02-0.24-0.03-0.54-0.03-0.92
				v-2.3h-0.78c-0.14,0-0.21-0.06-0.21-0.2v-0.81c0-0.13,0.07-0.2,0.21-0.2h0.78v-1.3c0-0.13,0.07-0.2,0.22-0.2h1.02
				c0.14,0,0.21,0.07,0.21,0.2v1.3h0.94c0.09,0,0.15,0.01,0.17,0.04c0.03,0.03,0.04,0.08,0.04,0.15v0.81c0,0.07-0.01,0.12-0.04,0.15
				c-0.03,0.03-0.08,0.04-0.17,0.04h-0.94v2.19c0,0.23,0,0.42,0,0.57s0.01,0.24,0.02,0.29c0.03,0.12,0.09,0.2,0.19,0.23
				c0.1,0.03,0.2,0.04,0.31,0.03c0.11-0.01,0.22-0.04,0.32-0.07c0.1-0.03,0.18-0.06,0.24-0.09c0.06-0.03,0.1-0.03,0.13,0
				c0.03,0.02,0.05,0.07,0.05,0.14l0.1,0.73c0.01,0.06,0,0.11-0.01,0.14C81.77,25.12,81.73,25.15,81.66,25.18z"/>
			<path class="st0" d="M85.99,25.26c-0.07,0-0.11-0.01-0.13-0.02c-0.02-0.01-0.03-0.05-0.03-0.12v-0.42
				c-0.12,0.18-0.33,0.33-0.61,0.45c-0.28,0.12-0.56,0.19-0.84,0.19c-0.3,0-0.59-0.04-0.87-0.11c-0.28-0.07-0.51-0.19-0.69-0.35
				c-0.18-0.16-0.32-0.35-0.43-0.58c-0.1-0.22-0.15-0.48-0.15-0.77c0-0.34,0.09-0.64,0.28-0.92c0.18-0.27,0.43-0.49,0.73-0.64
				c0.31-0.15,0.67-0.26,1.09-0.33c0.42-0.07,0.88-0.09,1.39-0.06c-0.04-0.51-0.29-0.8-0.75-0.85c-0.15-0.01-0.3-0.01-0.45,0.01
				c-0.15,0.02-0.3,0.05-0.44,0.09c-0.14,0.04-0.28,0.09-0.41,0.15s-0.25,0.11-0.35,0.17c-0.15,0.09-0.26,0.14-0.33,0.14
				c-0.07,0-0.1-0.07-0.1-0.2v-0.81c0-0.08,0.01-0.14,0.03-0.18c0.02-0.04,0.07-0.07,0.16-0.11c0.22-0.1,0.48-0.19,0.78-0.27
				c0.3-0.08,0.65-0.13,1.05-0.13c0.75,0,1.31,0.17,1.68,0.51c0.37,0.34,0.56,0.86,0.56,1.57v2.22c0,0.08,0,0.18,0,0.28
				c0,0.1,0,0.2,0.01,0.31c0,0.1,0.01,0.2,0.01,0.3c0,0.09,0.01,0.18,0.02,0.25c0.01,0.13,0.01,0.2-0.02,0.21
				c-0.03,0.01-0.08,0.02-0.15,0.02H85.99z M85.83,22.57c-0.42,0.01-0.77,0.03-1.04,0.08c-0.27,0.05-0.49,0.12-0.66,0.2
				c-0.17,0.08-0.28,0.19-0.34,0.3c-0.06,0.12-0.09,0.25-0.09,0.39c0,0.21,0.07,0.37,0.21,0.48c0.14,0.11,0.33,0.17,0.59,0.17
				c0.4,0,0.72-0.13,0.95-0.39C85.7,23.56,85.82,23.14,85.83,22.57z"/>
			<path class="st0" d="M88.72,25.24c-0.07,0-0.11-0.01-0.14-0.04c-0.03-0.03-0.04-0.08-0.04-0.16v-7.62c0-0.08,0.01-0.13,0.03-0.16
				c0.02-0.03,0.07-0.04,0.14-0.04h1.09c0.07,0,0.12,0.01,0.15,0.04c0.03,0.03,0.04,0.08,0.04,0.16v7.62c0,0.08-0.01,0.13-0.04,0.16
				c-0.03,0.03-0.08,0.04-0.15,0.04H88.72z"/>
		</g>
	</g>
	<g>
		<g>
			<path class="st0" d="M16.55,15.04c-0.71,0.59-1.99,1.69-2.71,2.24c1.63,1.2,3.25,2.15,4.6,2.7c0.68-0.58,2-1.65,2.63-2.26
				c-0.64-1.16-1.72-2.53-3.1-3.93C17.52,14.21,17.05,14.63,16.55,15.04z"/>
			<g>
				<path class="st0" d="M26.34,7.79c-0.56-1.72-2.5-2.4-4.42-2.12c0.92,0.67,0.9,1.48,0.24,2.89c1.21,1.23,2.24,2.55,3.06,3.9
					c0.71-1.31,1.19-2.6,1.43-3.83L26.34,7.79z"/>
			</g>
			<g>
				<path class="st0" d="M8.31,20.55c-1.94,0.68-3.04,0.73-3.6-0.64c-0.73,2.07,0.08,4.06,1.96,5.33c1.87,0,4.02-0.54,6.2-1.56
					C11.3,22.86,9.73,21.77,8.31,20.55z"/>
			</g>
		</g>
		<g>
			<g>
				<path class="st0" d="M4.7,5.84c0.06-0.07,0.13-0.11,0.21-0.16C2.8,5.15,0.65,6.44,0.18,8.64c0.24,1.22,0.72,2.51,1.43,3.82
					c0.82-1.35,1.86-2.66,3.06-3.9C4.07,7.26,4.01,6.51,4.7,5.84z"/>
			</g>
			<path class="st0" d="M19.98,25.23c2.01-1.03,2.96-2.56,2.08-5.16c-1.32,3.44-9.94-3.14-13.19-6.28c-1.39,1.4-2.47,2.77-3.1,3.93
				C9.52,21.4,15.58,25.42,19.98,25.23z"/>
		</g>
		<g>
			<g>
				<g>
					<path class="st0" d="M1.85,2.57C0.54,3.92-0.19,5.53,0.03,7.61C4.34-2.03,29.75,19.27,21,25.21
						C39.28,20.91,10.13-7.13,1.85,2.57z"/>
				</g>
			</g>
		</g>
		<g>
			<g>
				<path class="st0" d="M18.16,5.04l0.95,0.8c3.19-1.15,6.59-1.18,7.7,1.77c0.18-6.76-6.28-8.64-12.84-5.39
					C15.41,2.98,16.83,3.93,18.16,5.04z"/>
			</g>
			<g>
				<path class="st0" d="M12.3,8.97C10.68,7.8,9.13,6.92,7.83,6.41c-7.96,5.87-11.72,17.06-1.99,18.8
					C0.18,20.59,8.65,12.92,13.02,9.5C12.78,9.32,12.54,9.14,12.3,8.97z"/>
			</g>
		</g>
	</g>
</g>
</svg>
