<?xml version="1.0" encoding="UTF-8" standalone="no"?>
<!-- Generator: Adobe Illustrator 24.1.1, SVG Export Plug-In . SVG Version: 6.00 Build 0)  -->

<svg
   xmlns:dc="http://purl.org/dc/elements/1.1/"
   xmlns:cc="http://creativecommons.org/ns#"
   xmlns:rdf="http://www.w3.org/1999/02/22-rdf-syntax-ns#"
   xmlns:svg="http://www.w3.org/2000/svg"
   xmlns="http://www.w3.org/2000/svg"
   xmlns:sodipodi="http://sodipodi.sourceforge.net/DTD/sodipodi-0.dtd"
   xmlns:inkscape="http://www.inkscape.org/namespaces/inkscape"
   version="1.1"
   id="레이어_1"
   x="0px"
   y="0px"
   viewBox="0 0 90 23.9"
   xml:space="preserve"
   sodipodi:docname="logo.svg"
   width="90"
   height="23.9"
   inkscape:version="0.92.4 (5da689c313, 2019-01-14)"><metadata
   id="metadata987"><rdf:RDF><cc:Work
       rdf:about=""><dc:format>image/svg+xml</dc:format><dc:type
         rdf:resource="http://purl.org/dc/dcmitype/StillImage" /><dc:title></dc:title></cc:Work></rdf:RDF></metadata><defs
   id="defs985" /><sodipodi:namedview
   pagecolor="#ffffff"
   bordercolor="#666666"
   borderopacity="1"
   objecttolerance="10"
   gridtolerance="10"
   guidetolerance="10"
   inkscape:pageopacity="0"
   inkscape:pageshadow="2"
   inkscape:window-width="1920"
   inkscape:window-height="1017"
   id="namedview983"
   showgrid="false"
   inkscape:zoom="11.313709"
   inkscape:cx="39.286573"
   inkscape:cy="11.592294"
   inkscape:window-x="-8"
   inkscape:window-y="-8"
   inkscape:window-maximized="1"
   inkscape:current-layer="레이어_1" />
<style
   type="text/css"
   id="style902">
	.st0{fill:#FFFFFF;}
</style>
<g
   inkscape:groupmode="layer"
   id="layer1"
   inkscape:label="Layer 1"
   transform="translate(0,-1.9999996)" />
<g
   id="g980"
   transform="matrix(1.0964498,0,0,1.0964498,-9.1838944,2.9885207)">
	<g
   id="g938">
		<g
   id="g912">
			<path
   class="st0"
   d="m 34.72,9.73 v 5.6 c 0,0.19 -0.04,0.3 -0.11,0.35 -0.07,0.05 -0.2,0.07 -0.37,0.07 h -2.31 c -0.16,0 -0.28,-0.02 -0.36,-0.07 -0.08,-0.05 -0.12,-0.16 -0.12,-0.35 V 0.7 c 0,-0.16 0.04,-0.27 0.13,-0.32 0.09,-0.05 0.2,-0.08 0.32,-0.08 h 4.81 c 0.88,0 1.69,0.09 2.42,0.28 0.73,0.19 1.35,0.47 1.86,0.86 0.51,0.39 0.91,0.87 1.19,1.45 0.28,0.58 0.42,1.27 0.42,2.08 0,0.78 -0.16,1.46 -0.47,2.05 -0.31,0.59 -0.74,1.08 -1.27,1.48 -0.54,0.4 -1.18,0.71 -1.92,0.91 -0.75,0.21 -1.55,0.31 -2.42,0.31 h -1.8 z m 0,-6.94 v 4.45 h 1.59 c 0.96,0 1.7,-0.18 2.21,-0.54 0.51,-0.36 0.77,-0.94 0.77,-1.74 0,-0.71 -0.2,-1.25 -0.61,-1.61 C 38.27,2.98 37.73,2.8 37.06,2.8 h -2.34 z"
   id="path904"
   inkscape:connector-curvature="0"
   style="fill:#ffffff" />
			<path
   class="st0"
   d="m 53.69,15.73 c -0.19,0 -0.32,-0.02 -0.37,-0.05 -0.06,-0.03 -0.12,-0.12 -0.2,-0.27 L 49.7,9.69 h -2.21 v 5.62 c 0,0.19 -0.03,0.3 -0.1,0.35 -0.06,0.05 -0.18,0.07 -0.36,0.07 H 44.7 c -0.16,0 -0.28,-0.02 -0.36,-0.07 -0.08,-0.05 -0.12,-0.16 -0.12,-0.35 V 0.68 c 0,-0.16 0.04,-0.27 0.13,-0.32 0.09,-0.05 0.2,-0.08 0.32,-0.08 h 4.83 c 0.9,0 1.71,0.09 2.44,0.28 0.73,0.19 1.35,0.47 1.86,0.86 0.52,0.39 0.92,0.88 1.2,1.46 0.28,0.58 0.42,1.27 0.42,2.08 0,0.96 -0.25,1.78 -0.75,2.46 -0.5,0.68 -1.15,1.21 -1.97,1.59 l 3.89,6.2 c 0.13,0.2 0.18,0.34 0.14,0.41 -0.03,0.07 -0.17,0.11 -0.41,0.11 z M 47.49,2.75 v 4.49 h 1.61 c 0.96,0 1.71,-0.18 2.24,-0.55 C 51.87,6.32 52.13,5.74 52.13,4.93 52.13,4.21 51.92,3.66 51.49,3.3 51.07,2.93 50.52,2.75 49.84,2.75 Z"
   id="path906"
   inkscape:connector-curvature="0"
   style="fill:#ffffff" />
			<path
   class="st0"
   d="m 70.17,13.76 c -0.68,0.79 -1.49,1.37 -2.43,1.75 -0.93,0.37 -1.99,0.56 -3.17,0.56 -1.31,0 -2.44,-0.22 -3.38,-0.65 -0.94,-0.43 -1.71,-1.02 -2.32,-1.77 -0.6,-0.74 -1.05,-1.6 -1.33,-2.57 C 57.26,10.11 57.11,9.09 57.11,8.02 57.11,6.98 57.26,5.97 57.55,5 57.84,4.03 58.29,3.17 58.9,2.43 59.51,1.69 60.28,1.1 61.22,0.65 62.17,0.22 63.28,0 64.58,0 c 1.28,0 2.39,0.22 3.32,0.67 0.93,0.45 1.7,1.04 2.32,1.79 0.61,0.74 1.07,1.59 1.37,2.56 0.3,0.96 0.44,1.97 0.43,3.01 -0.01,1.18 -0.17,2.24 -0.46,3.2 -0.31,0.95 -0.77,1.8 -1.39,2.53 z M 64.58,2.49 c -0.76,0 -1.41,0.16 -1.96,0.47 -0.55,0.31 -1,0.73 -1.35,1.25 -0.36,0.52 -0.62,1.11 -0.79,1.78 -0.17,0.66 -0.25,1.34 -0.25,2.04 0,0.7 0.08,1.37 0.25,2.04 0.17,0.66 0.43,1.25 0.79,1.78 0.36,0.52 0.81,0.94 1.35,1.26 0.55,0.32 1.2,0.48 1.96,0.48 0.74,0 1.39,-0.16 1.93,-0.48 0.55,-0.32 0.99,-0.74 1.34,-1.26 0.35,-0.52 0.61,-1.12 0.78,-1.79 0.17,-0.67 0.25,-1.34 0.25,-2.03 0,-0.67 -0.08,-1.33 -0.25,-2 C 68.46,5.37 68.2,4.78 67.85,4.25 67.5,3.73 67.06,3.3 66.52,2.98 65.98,2.65 65.33,2.49 64.58,2.49 Z"
   id="path908"
   inkscape:connector-curvature="0"
   style="fill:#ffffff" />
			<path
   class="st0"
   d="m 87.41,15.73 c -0.17,0 -0.28,-0.02 -0.32,-0.07 -0.04,-0.05 -0.06,-0.15 -0.06,-0.31 V 5.28 l -3.89,10.01 c -0.07,0.15 -0.13,0.24 -0.18,0.28 -0.05,0.04 -0.15,0.06 -0.3,0.06 h -1.73 c -0.15,0 -0.25,-0.02 -0.31,-0.06 -0.06,-0.04 -0.12,-0.13 -0.17,-0.28 L 76.56,5.28 v 10.07 c 0,0.16 -0.02,0.26 -0.06,0.31 -0.04,0.05 -0.15,0.07 -0.32,0.07 h -1.95 c -0.17,0 -0.28,-0.02 -0.32,-0.07 -0.04,-0.05 -0.06,-0.15 -0.06,-0.31 V 0.88 C 73.85,0.6 73.88,0.43 73.94,0.37 74,0.31 74.16,0.28 74.43,0.28 h 2.23 c 0.12,0 0.21,0.02 0.28,0.06 0.07,0.04 0.13,0.13 0.18,0.26 L 81.79,12.25 86.47,0.6 c 0.08,-0.21 0.25,-0.32 0.5,-0.32 h 2.17 c 0.28,0 0.45,0.03 0.51,0.09 0.06,0.06 0.09,0.23 0.09,0.51 v 14.46 c 0,0.16 -0.02,0.26 -0.07,0.31 -0.05,0.05 -0.15,0.07 -0.31,0.07 h -1.95 z"
   id="path910"
   inkscape:connector-curvature="0"
   style="fill:#ffffff" />
		</g>
		
	</g>
	<g
   id="g978"
   transform="matrix(0.63234445,0,0,0.63234445,9.1007616,-0.15374704)">
		<g
   id="g950">
			<path
   class="st0"
   d="m 16.55,15.04 c -0.71,0.59 -1.99,1.69 -2.71,2.24 1.63,1.2 3.25,2.15 4.6,2.7 0.68,-0.58 2,-1.65 2.63,-2.26 -0.64,-1.16 -1.72,-2.53 -3.1,-3.93 -0.45,0.42 -0.92,0.84 -1.42,1.25 z"
   id="path940"
   inkscape:connector-curvature="0"
   style="fill:#ffffff" />
			<g
   id="g944">
				<path
   class="st0"
   d="m 26.34,7.79 c -0.56,-1.72 -2.5,-2.4 -4.42,-2.12 0.92,0.67 0.9,1.48 0.24,2.89 1.21,1.23 2.24,2.55 3.06,3.9 0.71,-1.31 1.19,-2.6 1.43,-3.83 z"
   id="path942"
   inkscape:connector-curvature="0"
   style="fill:#ffffff" />
			</g>
			<g
   id="g948">
				<path
   class="st0"
   d="m 8.31,20.55 c -1.94,0.68 -3.04,0.73 -3.6,-0.64 -0.73,2.07 0.08,4.06 1.96,5.33 1.87,0 4.02,-0.54 6.2,-1.56 C 11.3,22.86 9.73,21.77 8.31,20.55 Z"
   id="path946"
   inkscape:connector-curvature="0"
   style="fill:#ffffff" />
			</g>
		</g>
		<g
   id="g958">
			<g
   id="g954">
				<path
   class="st0"
   d="M 4.7,5.84 C 4.76,5.77 4.83,5.73 4.91,5.68 2.8,5.15 0.65,6.44 0.18,8.64 0.42,9.86 0.9,11.15 1.61,12.46 2.43,11.11 3.47,9.8 4.67,8.56 4.07,7.26 4.01,6.51 4.7,5.84 Z"
   id="path952"
   inkscape:connector-curvature="0"
   style="fill:#ffffff" />
			</g>
			<path
   class="st0"
   d="m 19.98,25.23 c 2.01,-1.03 2.96,-2.56 2.08,-5.16 -1.32,3.44 -9.94,-3.14 -13.19,-6.28 -1.39,1.4 -2.47,2.77 -3.1,3.93 3.75,3.68 9.81,7.7 14.21,7.51 z"
   id="path956"
   inkscape:connector-curvature="0"
   style="fill:#ffffff" />
		</g>
		<g
   id="g966">
			<g
   id="g964">
				<g
   id="g962">
					<path
   class="st0"
   d="M 1.85,2.57 C 0.54,3.92 -0.19,5.53 0.03,7.61 4.34,-2.03 29.75,19.27 21,25.21 39.28,20.91 10.13,-7.13 1.85,2.57 Z"
   id="path960"
   inkscape:connector-curvature="0"
   style="fill:#ffffff" />
				</g>
			</g>
		</g>
		<g
   id="g976">
			<g
   id="g970">
				<path
   class="st0"
   d="m 18.16,5.04 0.95,0.8 c 3.19,-1.15 6.59,-1.18 7.7,1.77 0.18,-6.76 -6.28,-8.64 -12.84,-5.39 1.44,0.76 2.86,1.71 4.19,2.82 z"
   id="path968"
   inkscape:connector-curvature="0"
   style="fill:#ffffff" />
			</g>
			<g
   id="g974">
				<path
   class="st0"
   d="M 12.3,8.97 C 10.68,7.8 9.13,6.92 7.83,6.41 -0.13,12.28 -3.89,23.47 5.84,25.21 0.18,20.59 8.65,12.92 13.02,9.5 12.78,9.32 12.54,9.14 12.3,8.97 Z"
   id="path972"
   inkscape:connector-curvature="0"
   style="fill:#ffffff" />
			</g>
		</g>
	</g>
</g></svg>