<?xml version="1.0" encoding="utf-8"?>
<!-- Generator: Adobe Illustrator 24.1.1, SVG Export Plug-In . SVG Version: 6.00 Build 0)  -->
<svg version="1.1" id="레이어_1" xmlns="http://www.w3.org/2000/svg" xmlns:xlink="http://www.w3.org/1999/xlink" x="0px"
	 y="0px" viewBox="0 0 10 15" style="enable-background:new 0 0 10 15;" xml:space="preserve">
<style type="text/css">
	.st0{fill:#9E9E9E;}
</style>
<path class="st0" d="M5,14.5c-0.1,0-0.3,0-0.4-0.1l-4-4c-0.2-0.2-0.2-0.5,0-0.7s0.5-0.2,0.7,0L5,13.3l3.6-3.6c0.2-0.2,0.5-0.2,0.7,0
	s0.2,0.5,0,0.7l-4,4C5.3,14.5,5.1,14.5,5,14.5z"/>
<path class="st0" d="M9,5.5c-0.1,0-0.3,0-0.4-0.1L5,1.7L1.4,5.4c-0.2,0.2-0.5,0.2-0.7,0s-0.2-0.5,0-0.7l4-4c0.2-0.2,0.5-0.2,0.7,0
	l4,4c0.2,0.2,0.2,0.5,0,0.7C9.3,5.5,9.1,5.5,9,5.5z"/>
</svg>
